<svg xmlns="http://www.w3.org/2000/svg" data-name="Layer 2" viewBox="0 0 35 35"><path d="M29.07 16.57a1.25 1.25 0 0 1-1.25-1.25v-3.53c0-5-4.62-9-10.3-9s-10.3 4.05-10.3 9v3.53a1.25 1.25 0 0 1-2.5 0v-3.53C4.72 5.43 10.47.25 17.52.25s12.8 5.18 12.8 11.54v3.53a1.24 1.24 0 0 1-1.25 1.25Z"/><path d="M25.69 28.33a1.25 1.25 0 0 1-1.25-1.25V15.21A1.25 1.25 0 0 1 25.69 14c4.31 0 7.82 3.23 7.82 7.19s-3.51 7.14-7.82 7.14zm1.25-11.74v9.11A4.86 4.86 0 0 0 31 21.15a4.86 4.86 0 0 0-4.06-4.56zM9.31 28.33c-4.31 0-7.82-3.22-7.82-7.18S5 14 9.31 14a1.25 1.25 0 0 1 1.25 1.25v11.83a1.25 1.25 0 0 1-1.25 1.25zM8.06 16.59A4.86 4.86 0 0 0 4 21.15a4.86 4.86 0 0 0 4.06 4.55z"/><path d="M25.28 32.4h-4.14a1.25 1.25 0 0 1 0-2.5h4.14a2.44 2.44 0 0 0 2.44-2.44v-.55a1.25 1.25 0 1 1 2.5 0v.55a4.94 4.94 0 0 1-4.94 4.94Z"/><path d="M19 34.75h-2.47a3.42 3.42 0 0 1-3.42-3.42v-.14a3.42 3.42 0 0 1 3.42-3.41H19a3.41 3.41 0 0 1 3.41 3.41v.14A3.42 3.42 0 0 1 19 34.75Zm-2.45-4.47a.92.92 0 0 0-.92.91v.14a.92.92 0 0 0 .92.92H19a.92.92 0 0 0 .91-.92v-.14a.91.91 0 0 0-.91-.91Z"/></svg>