<svg xmlns="http://www.w3.org/2000/svg" viewBox="0 0 64 64"><path fill="none" stroke="#010101" stroke-linecap="round" stroke-linejoin="round" stroke-miterlimit="10" stroke-width="2" d="M58.5 36.2V12.7M1 12.7v39.9c0 2.6 2.1 4.7 4.7 4.7h36.1m16.7-44.6H1V5.4C1 3 3 1 5.4 1h48.7c2.4 0 4.4 2 4.4 4.4v7.3z"/><ellipse cx="7.9" cy="6.9" fill="none" stroke="#010101" stroke-linecap="round" stroke-linejoin="round" stroke-miterlimit="10" stroke-width="2" rx="2.4" ry="2.3"/><ellipse cx="15.1" cy="6.9" fill="none" stroke="#010101" stroke-linecap="round" stroke-linejoin="round" stroke-miterlimit="10" stroke-width="2" rx="2.4" ry="2.3"/><ellipse cx="22.3" cy="6.9" fill="none" stroke="#010101" stroke-linecap="round" stroke-linejoin="round" stroke-miterlimit="10" stroke-width="2" rx="2.4" ry="2.3"/><path fill="none" stroke="#010101" stroke-linecap="round" stroke-linejoin="round" stroke-miterlimit="10" stroke-width="2" d="M52.3 8.4H32.1c-.9 0-1.6-.7-1.6-1.6h0c0-.9.7-1.6 1.6-1.6h20.2c.9 0 1.6.7 1.6 1.6h0c0 .9-.7 1.6-1.6 1.6zM26 27.9c0 2.7-1.1 5.1-3 6.8-1.7 1.6-3.9 2.5-6.4 2.5s-4.7-1-6.4-2.5c-1.8-1.7-3-4.1-3-6.8 0-5.2 4.2-9.4 9.4-9.4s9.4 4.2 9.4 9.4z"/><circle cx="16.6" cy="25.2" r="2.9" fill="none" stroke="#010101" stroke-linecap="round" stroke-linejoin="round" stroke-miterlimit="10" stroke-width="2"/><path fill="none" stroke="#010101" stroke-linecap="round" stroke-linejoin="round" stroke-miterlimit="10" stroke-width="2" d="M10.2 34.7c1-2.6 3.5-4.4 6.4-4.4s5.4 1.8 6.4 4.4m11.9 16.8H6.4m26.9-8.1H6.4m28-8.1h-2.9m17.3-8H31.5m.1-8.1h21.5m8.6 18c.7.2 1.3.8 1.3 1.6v1.8c0 4.6-1 9.2-3.1 13.4-2.2 4.3-5.2 7.4-9.2 8.9-.4.1-.8.1-1.1 0-4-1.5-7-4.6-9.2-8.9-2.1-4.1-3.1-8.7-3.1-13.4v-1.8c0-.8.5-1.4 1.3-1.6 4.6-1 8-2.9 10.4-5.6.6-.7 1.8-.7 2.4 0 2.3 2.7 5.7 4.6 10.3 5.6z"/><path fill="none" stroke="#010101" stroke-linecap="round" stroke-linejoin="round" stroke-miterlimit="10" stroke-width="2" d="M50.1 59.4c-2.7-1.2-4.9-3.5-6.7-7-1.8-3.4-2.7-7.5-2.7-11.8v-.4c3.8-1 7-2.6 9.5-4.9 2.5 2.3 5.7 3.9 9.5 4.9v.4c0 4.3-.9 8.3-2.7 11.8-2 3.5-4.2 5.8-6.9 7z"/><path fill="none" stroke="#010101" stroke-linecap="round" stroke-linejoin="round" stroke-miterlimit="10" stroke-width="2" d="m51.8 48.3.5 2.1c.1.4-.2.8-.7.8h-3c-.4 0-.8-.4-.7-.8l.5-2.2c0-.2 0-.5-.2-.6-.7-.6-1.1-1.5-.9-2.5.2-1.2 1.2-2.2 2.4-2.3 1.7-.2 3.2 1.1 3.2 2.8 0 .8-.4 1.6-.9 2.1-.2.2-.3.4-.2.6z"/></svg>