<svg xmlns="http://www.w3.org/2000/svg" width="64" height="64" viewBox="0 0 64 64"><pattern id="a" width="23.936" height="23.881" y="-420" overflow="visible" patternUnits="userSpaceOnUse" viewBox="0 -23.881 23.936 23.881"><path fill="none" d="M0 0h23.936v-23.881H0z"/><path fill="#78BFE8" d="M23.936 0H0v-23.881h23.936z"/></pattern><pattern id="b" width="23.936" height="23.881" y="-420" overflow="visible" patternUnits="userSpaceOnUse" viewBox="0 -23.881 23.936 23.881"><path fill="none" d="M0 0h23.936v-23.881H0z"/><path fill="#75BBA7" d="M23.936 0H0v-23.881h23.936z"/></pattern><pattern id="c" width="23.936" height="23.881" y="-420" overflow="visible" patternUnits="userSpaceOnUse" viewBox="0 -23.881 23.936 23.881"><path fill="none" d="M0 0h23.936v-23.881H0z"/><path fill="#EF6183" d="M23.936 0H0v-23.881h23.936z"/></pattern><path fill="url(#a)" d="M63.563 60.924c.003-.033.021-.061.021-.094 0-.27-.12-.54-.32-.73l-.08-.08-.021-.01-2.233-2.075a1 1 0 0 0-1.361 1.465l.463.431h-3.048v-18.35c0-.56-.45-1-1-1h-4.42c-.56 0-1 .44-1 1v18.35h-3.65v-14.66c0-.56-.45-1-1-1h-4.42c-.56 0-1 .44-1 1v14.66h-3.65v-9.13c0-.55-.45-1-1-1h-4.43c-.55 0-1 .45-1 1v9.13h-3.64v-12.82c0-.55-.45-1-1-1h-4.43c-.55 0-1 .45-1 1v12.82h-3.65v-5.44c0-.55-.44-1-1-1h-4.42c-.55 0-1 .45-1 1v5.44h-5.69V5.313l.433.466a1 1 0 1 0 1.465-1.362L4.314 2.085c-.009-.011-.024-.014-.035-.024a.973.973 0 0 0-.125-.102c-.03-.03-.07-.05-.11-.07-.01-.01-.02-.01-.03-.01l-.004-.001c-.033-.016-.068-.024-.104-.036-.018-.005-.039-.013-.052-.013-.05-.01-.08-.02-.13-.03-.01 0-.02 0-.03-.01-.04-.01-.07-.02-.11-.02-.01 0-.03 0-.05.01-.108.006-.21.032-.309.069-.039.014-.072.036-.11.055-.036.02-.076.032-.111.056a2.311 2.311 0 0 0-.109.095c-.013.013-.033.017-.045.031L.683 4.417a1 1 0 1 0 1.465 1.362l.437-.47V60.83c0 .55.45 1 1 1h7.59c.03.01.07.01.1.01s.07 0 .1-.01h4.22c.03.01.07.01.1.01.04 0 .07 0 .1-.01h5.45c.03.01.07.01.1.01s.07 0 .1-.01h4.23c.03.01.06.01.1.01.03 0 .07 0 .1-.01h5.44c.03.01.07.01.1.01.04 0 .07 0 .1-.01h4.23c.03.01.07.01.1.01s.07 0 .1-.01h5.45c.03.01.06.01.1.01.03 0 .07 0 .1-.01h4.22c.03.01.06.01.1.01.03 0 .07 0 .1-.01h5.45c.03.01.07.01.1.01s.07 0 .1-.01h4.22c.03.01.07.01.1.01s.07 0 .1-.01h3.957l-.472.439a1 1 0 1 0 1.361 1.464l2.319-2.155c.004-.004.011-.005.015-.009a1.01 1.01 0 0 0 .204-.294.963.963 0 0 0 .094-.351z"/><path fill="url(#b)" d="M13.834 42.369c1.74 0 3.16-1.42 3.16-3.16 0-.72-.24-1.38-.65-1.91l5.7-6.85c.45.25.96.39 1.51.39.76 0 1.46-.26 2-.71l4.99 5.29c-.05.23-.08.47-.08.72 0 1.75 1.42 3.17 3.17 3.17 1.74 0 3.16-1.42 3.16-3.17 0-.43-.09-.84-.24-1.22l5.61-7.46a3.108 3.108 0 0 0 3.248-.099l5.65 4.993a3.031 3.031 0 0 0-.458 1.626c0 1.75 1.42 3.16 3.17 3.16a3.16 3.16 0 0 0 3.16-3.16c0-1.74-1.42-3.16-3.16-3.16-.419 0-.798.08-1.167.229l-5.942-5.25c.13-.34.2-.709.2-1.089 0-1.75-1.42-3.17-3.16-3.17-1.75 0-3.17 1.42-3.17 3.17 0 .44.09.86.26 1.24l-5.6 7.45a3.06 3.06 0 0 0-1.56-.42c-.75 0-1.44.26-1.98.69l-5.01-5.28a3.171 3.171 0 0 0-3.09-3.88c-1.74 0-3.16 1.42-3.16 3.17 0 .46.1.89.28 1.28l-5.98 7.21a3.162 3.162 0 0 0-4.03 3.04 3.167 3.167 0 0 0 3.169 3.16z"/><path fill="url(#c)" d="M40.964 7.819c.01-.15.02-.31.02-.46 0-1.74-.68-3.42-1.94-4.77a8.179 8.179 0 0 0-5.97-2.59c-2.13 0-4.12.83-5.62 2.34a7.722 7.722 0 0 0-2.27 5.55c.03 4.42 5.74 12.52 7.88 15.4 2.08-2.87 7.59-10.88 7.9-15.47zm-13.2-.78c0-2.93 2.39-5.32 5.32-5.32s5.31 2.39 5.31 5.32-2.38 5.31-5.31 5.31-5.32-2.38-5.32-5.31z"/><path fill="url(#c)" d="M36.394 7.039c0-1.83-1.48-3.32-3.31-3.32s-3.32 1.49-3.32 3.32a3.316 3.316 0 0 0 6.63 0z"/></svg>